<svg xmlns="http://www.w3.org/2000/svg" xmlns:xlink="http://www.w3.org/1999/xlink" width="1080" height="1080" viewBox="0 0 1080 1080"><rect width="1080" height="1080" fill="#0a0a0a"/><text x="1010" y="70" font-family="Segoe UI, Arial, sans-serif" font-size="24" font-weight="400" fill="rgba(255,255,255,0.2)" text-anchor="end">5/7</text><circle cx="540" cy="170" r="64" fill="none" stroke="#C9A227" stroke-width="3"/><text x="540" y="188" font-family="Segoe UI, Arial, sans-serif" font-size="58" font-weight="700" fill="#C9A227" text-anchor="middle">4</text><text x="540" y="288.0" font-family="Segoe UI, Arial, sans-serif" font-size="50" font-weight="600" text-anchor="middle"><tspan fill="#ffffff">Instálala en tu celular</tspan></text><text x="540" y="352.0" font-family="Segoe UI, Arial, sans-serif" font-size="50" font-weight="600" text-anchor="middle"><tspan fill="#C9A227">en 10 segundos</tspan></text><g transform="translate(265.0,435.0) scale(2.9166666666666665)" fill="none" stroke="#C9A227" stroke-width="1.6" stroke-linecap="round" stroke-linejoin="round"><path d="M8.286 7.008c-3.216 0 -4.286 3.23 -4.286 5.92c0 3.229 2.143 8.072 4.286 8.072c1.165 -.05 1.799 -.538 3.214 -.538c1.406 0 1.607 .538 3.214 .538s4.286 -3.229 4.286 -5.381c-.03 -.011 -2.649 -.434 -2.679 -3.23c-.02 -2.335 2.589 -3.179 2.679 -3.228c-1.096 -1.606 -3.162 -2.113 -3.75 -2.153c-1.535 -.12 -3.032 1.077 -3.75 1.077c-.729 0 -2.036 -1.077 -3.214 -1.077"/><path d="M12 4a2 2 0 0 0 2 -2a2 2 0 0 0 -2 2"/></g><text x="300" y="540" font-family="Segoe UI, Arial, sans-serif" font-size="30" font-weight="600" fill="#ffffff" text-anchor="middle">iPhone</text><circle cx="150" cy="592" r="14" fill="rgba(201,162,39,0.15)" stroke="#C9A227" stroke-width="1"/><text x="150" y="598" font-family="Segoe UI, Arial, sans-serif" font-size="18" font-weight="700" fill="#C9A227" text-anchor="middle">1</text><text x="180" y="600" font-family="Segoe UI, Arial, sans-serif" font-size="22" font-weight="400" fill="rgba(255,255,255,0.8)" text-anchor="start">Toca Compartir</text><circle cx="150" cy="648" r="14" fill="rgba(201,162,39,0.15)" stroke="#C9A227" stroke-width="1"/><text x="150" y="654" font-family="Segoe UI, Arial, sans-serif" font-size="18" font-weight="700" fill="#C9A227" text-anchor="middle">2</text><text x="180" y="656" font-family="Segoe UI, Arial, sans-serif" font-size="22" font-weight="400" fill="rgba(255,255,255,0.8)" text-anchor="start">Agregar a inicio</text><circle cx="150" cy="704" r="14" fill="rgba(201,162,39,0.15)" stroke="#C9A227" stroke-width="1"/><text x="150" y="710" font-family="Segoe UI, Arial, sans-serif" font-size="18" font-weight="700" fill="#C9A227" text-anchor="middle">3</text><text x="180" y="712" font-family="Segoe UI, Arial, sans-serif" font-size="22" font-weight="400" fill="rgba(255,255,255,0.8)" text-anchor="start">Listo, ya está</text><g transform="translate(745.0,435.0) scale(2.9166666666666665)" fill="none" stroke="#C9A227" stroke-width="1.6" stroke-linecap="round" stroke-linejoin="round"><path d="M4 10l0 6"/><path d="M20 10l0 6"/><path d="M7 9h10v8a1 1 0 0 1 -1 1h-8a1 1 0 0 1 -1 -1v-8a5 5 0 0 1 10 0"/><path d="M8 3l1 2"/><path d="M16 3l-1 2"/><path d="M9 18l0 3"/><path d="M15 18l0 3"/></g><text x="780" y="540" font-family="Segoe UI, Arial, sans-serif" font-size="30" font-weight="600" fill="#ffffff" text-anchor="middle">Android</text><circle cx="630" cy="592" r="14" fill="rgba(201,162,39,0.15)" stroke="#C9A227" stroke-width="1"/><text x="630" y="598" font-family="Segoe UI, Arial, sans-serif" font-size="18" font-weight="700" fill="#C9A227" text-anchor="middle">1</text><text x="660" y="600" font-family="Segoe UI, Arial, sans-serif" font-size="22" font-weight="400" fill="rgba(255,255,255,0.8)" text-anchor="start">Abre el menú ⋮</text><circle cx="630" cy="648" r="14" fill="rgba(201,162,39,0.15)" stroke="#C9A227" stroke-width="1"/><text x="630" y="654" font-family="Segoe UI, Arial, sans-serif" font-size="18" font-weight="700" fill="#C9A227" text-anchor="middle">2</text><text x="660" y="656" font-family="Segoe UI, Arial, sans-serif" font-size="22" font-weight="400" fill="rgba(255,255,255,0.8)" text-anchor="start">Instalar app</text><circle cx="630" cy="704" r="14" fill="rgba(201,162,39,0.15)" stroke="#C9A227" stroke-width="1"/><text x="630" y="710" font-family="Segoe UI, Arial, sans-serif" font-size="18" font-weight="700" fill="#C9A227" text-anchor="middle">3</text><text x="660" y="712" font-family="Segoe UI, Arial, sans-serif" font-size="22" font-weight="400" fill="rgba(255,255,255,0.8)" text-anchor="start">Listo, ya está</text><line x1="540" y1="420" x2="540" y2="730" stroke="rgba(255,255,255,0.08)" stroke-width="1"/><rect x="160" y="800" width="760" height="110" rx="14" fill="rgba(201,162,39,0.08)" stroke="rgba(201,162,39,0.25)" stroke-width="1"/><g transform="translate(207.0,832.0) scale(1.9166666666666667)" fill="none" stroke="#C9A227" stroke-width="1.8" stroke-linecap="round" stroke-linejoin="round"><path d="M10 5a2 2 0 1 1 4 0a7 7 0 0 1 4 6v3a4 4 0 0 0 2 3h-16a4 4 0 0 0 2 -3v-3a7 7 0 0 1 4 -6"/><path d="M9 17v1a3 3 0 0 0 6 0v-1"/></g><text x="280" y="844" font-family="Segoe UI, Arial, sans-serif" font-size="26" font-weight="600" fill="#C9A227" text-anchor="start">Activa las notificaciones</text><text x="280" y="878" font-family="Segoe UI, Arial, sans-serif" font-size="22" font-weight="400" fill="rgba(255,255,255,0.6)" text-anchor="start">Y entérate ni bien se confirma la alineación</text></svg>