<svg xmlns="http://www.w3.org/2000/svg" width="1080" height="1920" viewBox="0 0 1080 1920"><rect width="1080" height="1920" fill="#0a0a0a"/><rect x="60.0" y="70" width="231.0" height="15" rx="7.5" fill="rgba(255,255,255,0.15)"/><rect x="303.0" y="70" width="231.0" height="15" rx="7.5" fill="rgba(255,255,255,0.15)"/><rect x="546.0" y="70" width="231.0" height="15" rx="7.5" fill="#C9A227"/><rect x="789.0" y="70" width="231.0" height="15" rx="7.5" fill="rgba(255,255,255,0.15)"/><text x="540.0" y="220" font-family="Segoe UI, Arial, sans-serif" font-size="48" font-weight="500" fill="#C9A227" text-anchor="middle" letter-spacing="3">CÓMO USARLA</text><g transform="translate(485.0,305.0) scale(4.583333333333333)" fill="none" stroke="#C9A227" stroke-width="2" stroke-linecap="round" stroke-linejoin="round"><path d="M4 10l0 6"/><path d="M20 10l0 6"/><path d="M7 9h10v8a1 1 0 0 1 -1 1h-8a1 1 0 0 1 -1 -1v-8a5 5 0 0 1 10 0"/><path d="M8 3l1 2"/><path d="M16 3l-1 2"/><path d="M9 18l0 3"/><path d="M15 18l0 3"/></g><text x="540.0" y="520" font-family="Segoe UI, Arial, sans-serif" font-size="60" font-weight="500" fill="#C9A227" text-anchor="middle">Android</text><circle cx="170" cy="700" r="38" fill="none" stroke="#C9A227" stroke-width="3"/><text x="170" y="713" font-family="Segoe UI, Arial, sans-serif" font-size="34" font-weight="500" fill="#C9A227" text-anchor="middle">1</text><text x="240" y="690" font-family="Segoe UI, Arial, sans-serif" font-size="38" font-weight="500" fill="#ffffff">Abre guessbet.vercel.app</text><text x="240" y="736" font-family="Segoe UI, Arial, sans-serif" font-size="38" font-weight="500" fill="#ffffff">en Chrome</text><circle cx="170" cy="882" r="38" fill="none" stroke="#C9A227" stroke-width="3"/><text x="170" y="895" font-family="Segoe UI, Arial, sans-serif" font-size="34" font-weight="500" fill="#C9A227" text-anchor="middle">2</text><text x="240" y="872" font-family="Segoe UI, Arial, sans-serif" font-size="38" font-weight="500" fill="#ffffff">Toca el menú ⋮</text><circle cx="170" cy="1018" r="38" fill="none" stroke="#C9A227" stroke-width="3"/><text x="170" y="1031" font-family="Segoe UI, Arial, sans-serif" font-size="34" font-weight="500" fill="#C9A227" text-anchor="middle">3</text><text x="240" y="1008" font-family="Segoe UI, Arial, sans-serif" font-size="38" font-weight="500" fill="#ffffff">Instalar app</text></svg>