<svg xmlns="http://www.w3.org/2000/svg" width="1080" height="1920" viewBox="0 0 1080 1920"><rect width="1080" height="1920" fill="#0a0a0a"/><rect x="60.0" y="70" width="231.0" height="15" rx="7.5" fill="rgba(255,255,255,0.15)"/><rect x="303.0" y="70" width="231.0" height="15" rx="7.5" fill="#C9A227"/><rect x="546.0" y="70" width="231.0" height="15" rx="7.5" fill="rgba(255,255,255,0.15)"/><rect x="789.0" y="70" width="231.0" height="15" rx="7.5" fill="rgba(255,255,255,0.15)"/><g transform="translate(485.0,305.0) scale(4.583333333333333)" fill="none" stroke="#C9A227" stroke-width="2" stroke-linecap="round" stroke-linejoin="round"><path d="M8.286 7.008c-3.216 0 -4.286 3.23 -4.286 5.92c0 3.229 2.143 8.072 4.286 8.072c1.165 -.05 1.799 -.538 3.214 -.538c1.406 0 1.607 .538 3.214 .538s4.286 -3.229 4.286 -5.381c-.03 -.011 -2.649 -.434 -2.679 -3.23c-.02 -2.335 2.589 -3.179 2.679 -3.228c-1.096 -1.606 -3.162 -2.113 -3.75 -2.153c-1.535 -.12 -3.032 1.077 -3.75 1.077c-.729 0 -2.036 -1.077 -3.214 -1.077"/><path d="M12 4a2 2 0 0 0 2 -2a2 2 0 0 0 -2 2"/></g><text x="540.0" y="520" font-family="Segoe UI, Arial, sans-serif" font-size="60" font-weight="500" fill="#C9A227" text-anchor="middle">iPhone</text><circle cx="170" cy="700" r="38" fill="none" stroke="#C9A227" stroke-width="3"/><text x="170" y="713" font-family="Segoe UI, Arial, sans-serif" font-size="34" font-weight="500" fill="#C9A227" text-anchor="middle">1</text><text x="240" y="690" font-family="Segoe UI, Arial, sans-serif" font-size="38" font-weight="500" fill="#ffffff">Abre guessbet.vercel.app</text><text x="240" y="736" font-family="Segoe UI, Arial, sans-serif" font-size="38" font-weight="500" fill="#ffffff">en Safari</text><circle cx="170" cy="882" r="38" fill="none" stroke="#C9A227" stroke-width="3"/><text x="170" y="895" font-family="Segoe UI, Arial, sans-serif" font-size="34" font-weight="500" fill="#C9A227" text-anchor="middle">2</text><text x="240" y="872" font-family="Segoe UI, Arial, sans-serif" font-size="38" font-weight="500" fill="#ffffff">Toca el ícono de compartir</text><circle cx="170" cy="1018" r="38" fill="none" stroke="#C9A227" stroke-width="3"/><text x="170" y="1031" font-family="Segoe UI, Arial, sans-serif" font-size="34" font-weight="500" fill="#C9A227" text-anchor="middle">3</text><text x="240" y="1008" font-family="Segoe UI, Arial, sans-serif" font-size="38" font-weight="500" fill="#ffffff">Agregar a pantalla de inicio</text></svg>