<svg xmlns="http://www.w3.org/2000/svg" width="1080" height="1920" viewBox="0 0 1080 1920"><rect width="1080" height="1920" fill="#0a0a0a"/><rect x="60.0" y="70" width="231.0" height="15" rx="7.5" fill="#C9A227"/><rect x="303.0" y="70" width="231.0" height="15" rx="7.5" fill="rgba(255,255,255,0.15)"/><rect x="546.0" y="70" width="231.0" height="15" rx="7.5" fill="rgba(255,255,255,0.15)"/><rect x="789.0" y="70" width="231.0" height="15" rx="7.5" fill="rgba(255,255,255,0.15)"/><g transform="translate(475.0,559.6) scale(5.416666666666667)" fill="none" stroke="#C9A227" stroke-width="2" stroke-linecap="round" stroke-linejoin="round"><path d="M6 5a2 2 0 0 1 2 -2h8a2 2 0 0 1 2 2v14a2 2 0 0 1 -2 2h-8a2 2 0 0 1 -2 -2v-14"/><path d="M11 4h2"/><path d="M12 17v.01"/></g><text x="540.0" y="812.0" font-family="Segoe UI, Arial, sans-serif" font-size="78" font-weight="500" text-anchor="middle"><tspan fill="#ffffff">GuessBet no está</tspan></text><text x="540.0" y="916.0" font-family="Segoe UI, Arial, sans-serif" font-size="78" font-weight="500" text-anchor="middle"><tspan fill="#ffffff">en tiendas.</tspan></text><text x="540.0" y="1020.0" font-family="Segoe UI, Arial, sans-serif" font-size="78" font-weight="500" text-anchor="middle"><tspan fill="#ffffff">Es </tspan><tspan fill="#C9A227">web app.</tspan></text><text x="540.0" y="1124.0" font-family="Segoe UI, Arial, sans-serif" font-size="78" font-weight="500" text-anchor="middle"><tspan fill="#ffffff">Funciona igual en</tspan></text><text x="540.0" y="1228.0" font-family="Segoe UI, Arial, sans-serif" font-size="78" font-weight="500" text-anchor="middle"><tspan fill="#ffffff">iPhone y Android.</tspan></text></svg>