<svg xmlns="http://www.w3.org/2000/svg" width="1080" height="1920" viewBox="0 0 1080 1920"><rect width="1080" height="1920" fill="#0a0a0a"/><rect x="60.0" y="70" width="182.4" height="15" rx="7.5" fill="rgba(255,255,255,0.15)"/><rect x="254.4" y="70" width="182.4" height="15" rx="7.5" fill="rgba(255,255,255,0.15)"/><rect x="448.8" y="70" width="182.4" height="15" rx="7.5" fill="rgba(255,255,255,0.15)"/><rect x="643.2" y="70" width="182.4" height="15" rx="7.5" fill="rgba(255,255,255,0.15)"/><rect x="837.6" y="70" width="182.4" height="15" rx="7.5" fill="#C9A227"/><text x="540.0" y="220" font-family="Segoe UI, Arial, sans-serif" font-size="48" font-weight="500" fill="#C9A227" text-anchor="middle" letter-spacing="3">FAQ</text><g transform="translate(480.0,665.6) scale(5.0)" fill="none" stroke="#C9A227" stroke-width="2" stroke-linecap="round" stroke-linejoin="round"><path d="M3 12a9 9 0 1 0 18 0a9 9 0 1 0 -18 0"/><path d="M12 7l4.76 3.45l-1.76 5.55h-6l-1.76 -5.55l4.76 -3.45"/><path d="M12 7v-4m3 13l2.5 3m-.74 -8.55l3.74 -1.45m-11.44 7.05l-2.56 2.95m.74 -8.55l-3.74 -1.45"/></g><text x="540.0" y="908.0" font-family="Segoe UI, Arial, sans-serif" font-size="78" font-weight="500" text-anchor="middle"><tspan fill="#ffffff">¿Más dudas?</tspan></text><text x="540.0" y="1012.0" font-family="Segoe UI, Arial, sans-serif" font-size="78" font-weight="500" text-anchor="middle"><tspan fill="#ffffff">Escríbenos al DM.</tspan></text><rect x="225.15999999999997" y="1185.0" width="629.6800000000001" height="110" rx="55.0" fill="#C9A227"/><text x="540.0" y="1258.56" font-family="Segoe UI, Arial, sans-serif" font-size="58" font-weight="500" fill="#0a0a0a" text-anchor="middle">Pruébala ahora →</text></svg>