<svg xmlns="http://www.w3.org/2000/svg" width="1080" height="1080" viewBox="0 0 1080 1080"><defs><linearGradient id="bg" x1="0" y1="0" x2="0" y2="1"><stop offset="0%" stop-color="#13131a"/><stop offset="100%" stop-color="#0a0a0a"/></linearGradient><linearGradient id="gold" x1="0" y1="0" x2="1" y2="0"><stop offset="0%" stop-color="#b8911f"/><stop offset="50%" stop-color="#e8c45a"/><stop offset="100%" stop-color="#b8911f"/></linearGradient><linearGradient id="bar" x1="0" y1="0" x2="1" y2="0"><stop offset="0%" stop-color="#C9A227"/><stop offset="100%" stop-color="#e8c45a"/></linearGradient></defs><rect width="1080" height="1080" fill="url(#bg)"/><rect x="0" y="0" width="1080" height="5" fill="#C9A227"/><rect x="0" y="1075" width="1080" height="5" fill="#C9A227"/><circle cx="50" cy="50" r="19" fill="none" stroke="#C9A227" stroke-width="1.5"/><text x="50" y="57" font-family="Segoe UI, Arial, sans-serif" font-size="15" font-weight="700" fill="#C9A227" text-anchor="middle">G</text><text x="82" y="57" font-family="Segoe UI, Arial, sans-serif" font-size="19" font-weight="400" fill="#ffffff" letter-spacing="1">guess_bet</text><circle cx="916" cy="50" r="5" fill="rgba(255,255,255,0.15)"/><circle cx="936" cy="50" r="5" fill="rgba(255,255,255,0.15)"/><circle cx="956" cy="50" r="5" fill="rgba(255,255,255,0.15)"/><circle cx="976" cy="50" r="5" fill="rgba(255,255,255,0.15)"/><circle cx="996" cy="50" r="5" fill="#C9A227"/><circle cx="1016" cy="50" r="5" fill="rgba(255,255,255,0.15)"/><circle cx="1036" cy="50" r="5" fill="rgba(255,255,255,0.15)"/><line x1="36" y1="82" x2="1044" y2="82" stroke="rgba(255,255,255,0.07)" stroke-width="1"/><text x="60" y="118" font-family="Segoe UI, Arial, sans-serif" font-size="20" font-weight="700" fill="#C9A227" letter-spacing="3">04 / 05</text><text x="540" y="210" font-family="Segoe UI, Arial, sans-serif" font-size="66" font-weight="900" fill="#ffffff" text-anchor="middle">Transparencia</text><text x="540" y="288" font-family="Segoe UI, Arial, sans-serif" font-size="66" font-weight="900" fill="#C9A227" text-anchor="middle">total.</text><text x="540" y="344" font-family="Segoe UI, Arial, sans-serif" font-size="26" fill="rgba(255,255,255,0.45)" text-anchor="middle">Ves exactamente qué datos usó el modelo</text><text x="540" y="378" font-family="Segoe UI, Arial, sans-serif" font-size="26" fill="rgba(255,255,255,0.45)" text-anchor="middle">para calcular tu análisis.</text><line x1="60" y1="414" x2="1020" y2="414" stroke="rgba(255,255,255,0.07)" stroke-width="1"/><rect x="60" y="450" width="960" height="140" rx="12" fill="rgba(255,255,255,0.03)" stroke="rgba(201,162,39,0.14)" stroke-width="1"/><rect x="60" y="450" width="6" height="140" rx="3" fill="#C9A227"/><text x="92" y="494" font-family="Segoe UI, Arial, sans-serif" font-size="22" fill="rgba(255,255,255,0.38)">ELO del equipo</text><text x="92" y="554" font-family="Segoe UI, Arial, sans-serif" font-size="44" font-weight="700" fill="#ffffff">1849 pts</text><rect x="60" y="618" width="960" height="140" rx="12" fill="rgba(255,255,255,0.03)" stroke="rgba(201,162,39,0.14)" stroke-width="1"/><rect x="60" y="618" width="6" height="140" rx="3" fill="#C9A227"/><text x="92" y="662" font-family="Segoe UI, Arial, sans-serif" font-size="22" fill="rgba(255,255,255,0.38)">xG promedio del torneo</text><text x="92" y="722" font-family="Segoe UI, Arial, sans-serif" font-size="44" font-weight="700" fill="#ffffff">1.46 / partido</text><rect x="60" y="786" width="960" height="140" rx="12" fill="rgba(255,255,255,0.03)" stroke="rgba(201,162,39,0.14)" stroke-width="1"/><rect x="60" y="786" width="6" height="140" rx="3" fill="#C9A227"/><text x="92" y="830" font-family="Segoe UI, Arial, sans-serif" font-size="22" fill="rgba(255,255,255,0.38)">Defensa real del Mundial</text><text x="92" y="890" font-family="Segoe UI, Arial, sans-serif" font-size="44" font-weight="700" fill="#ffffff">0.72 xG en contra</text><text x="540" y="930" font-family="Segoe UI, Arial, sans-serif" font-size="22" fill="rgba(255,255,255,0.28)" text-anchor="middle">Sección "Basado en" · Cada análisis</text><rect x="130" y="962" width="820" height="66" rx="33" fill="url(#gold)"/><text x="540" y="1006" font-family="Segoe UI, Arial, sans-serif" font-size="26" font-weight="700" fill="#0a0a0a" text-anchor="middle">Pruébalo → guessbet.vercel.app</text></svg>