<svg xmlns="http://www.w3.org/2000/svg" width="1080" height="1080" viewBox="0 0 1080 1080"><defs><linearGradient id="bg" x1="0" y1="0" x2="0" y2="1"><stop offset="0%" stop-color="#13131a"/><stop offset="100%" stop-color="#0a0a0a"/></linearGradient><linearGradient id="gold" x1="0" y1="0" x2="1" y2="0"><stop offset="0%" stop-color="#b8911f"/><stop offset="50%" stop-color="#e8c45a"/><stop offset="100%" stop-color="#b8911f"/></linearGradient></defs><rect width="1080" height="1080" fill="url(#bg)"/><rect x="0" y="0" width="1080" height="5" fill="#C9A227"/><rect x="0" y="1075" width="1080" height="5" fill="#C9A227"/><circle cx="50" cy="50" r="19" fill="none" stroke="#C9A227" stroke-width="1.5"/><text x="50" y="57" font-family="Segoe UI, Arial, sans-serif" font-size="15" font-weight="700" fill="#C9A227" text-anchor="middle">G</text><text x="82" y="57" font-family="Segoe UI, Arial, sans-serif" font-size="19" fill="#ffffff" letter-spacing="1">guess_bet</text><circle cx="916" cy="50" r="5" fill="#C9A227"/><circle cx="936" cy="50" r="5" fill="rgba(255,255,255,0.15)"/><circle cx="956" cy="50" r="5" fill="rgba(255,255,255,0.15)"/><circle cx="976" cy="50" r="5" fill="rgba(255,255,255,0.15)"/><circle cx="996" cy="50" r="5" fill="rgba(255,255,255,0.15)"/><circle cx="1016" cy="50" r="5" fill="rgba(255,255,255,0.15)"/><circle cx="1036" cy="50" r="5" fill="rgba(255,255,255,0.15)"/><line x1="36" y1="82" x2="1044" y2="82" stroke="rgba(255,255,255,0.07)" stroke-width="1"/><rect x="410" y="100" width="260" height="38" rx="19" fill="rgba(201,162,39,0.12)" stroke="rgba(201,162,39,0.35)" stroke-width="1"/><text x="540" y="125" font-family="Segoe UI, Arial, sans-serif" font-size="17" font-weight="600" fill="#C9A227" text-anchor="middle" letter-spacing="2">MUNDIAL 2026</text><circle cx="540" cy="280" r="140" fill="none" stroke="rgba(201,162,39,0.04)" stroke-width="1"/><circle cx="540" cy="280" r="110" fill="none" stroke="rgba(201,162,39,0.06)" stroke-width="1"/><circle cx="540" cy="280" r="80" fill="none" stroke="rgba(201,162,39,0.09)" stroke-width="1"/><circle cx="540" cy="280" r="76" fill="rgba(201,162,39,0.10)" stroke="rgba(201,162,39,0.28)" stroke-width="2"/><text x="540" y="308" font-family="Segoe UI Emoji,Arial" font-size="70" fill="#C9A227" text-anchor="middle">⚡</text><text x="540" y="408" font-family="Segoe UI, Arial, sans-serif" font-size="24" font-weight="400" fill="rgba(255,255,255,0.38)" text-anchor="middle" letter-spacing="8">NOVEDADES</text><text x="540" y="498" font-family="Segoe UI, Arial, sans-serif" font-size="88" font-weight="900" fill="#ffffff" text-anchor="middle">GuessBet</text><text x="540" y="558" font-family="Segoe UI, Arial, sans-serif" font-size="36" font-weight="400" fill="#C9A227" text-anchor="middle">se actualiza</text><line x1="60" y1="600" x2="1020" y2="600" stroke="rgba(255,255,255,0.07)" stroke-width="1"/><text x="540" y="654" font-family="Segoe UI, Arial, sans-serif" font-size="28" fill="rgba(255,255,255,0.50)" text-anchor="middle">5 mejoras que cambian la experiencia.</text><text x="540" y="700" font-family="Segoe UI, Arial, sans-serif" font-size="28" fill="rgba(255,255,255,0.50)" text-anchor="middle">Desliza para verlas 👉</text><line x1="60" y1="748" x2="1020" y2="748" stroke="rgba(255,255,255,0.07)" stroke-width="1"/><rect x="60" y="772" width="290" height="46" rx="23" fill="rgba(201,162,39,0.08)" stroke="rgba(201,162,39,0.22)" stroke-width="1"/><text x="205" y="802" font-family="Segoe UI, Arial, sans-serif" font-size="20" font-weight="500" fill="rgba(255,255,255,0.70)" text-anchor="middle">✦ Marcador exacto</text><rect x="730" y="772" width="290" height="46" rx="23" fill="rgba(201,162,39,0.08)" stroke="rgba(201,162,39,0.22)" stroke-width="1"/><text x="875" y="802" font-family="Segoe UI, Arial, sans-serif" font-size="20" font-weight="500" fill="rgba(255,255,255,0.70)" text-anchor="middle">✦ Factor goleadores</text><rect x="60" y="834" width="290" height="46" rx="23" fill="rgba(201,162,39,0.08)" stroke="rgba(201,162,39,0.22)" stroke-width="1"/><text x="205" y="864" font-family="Segoe UI, Arial, sans-serif" font-size="20" font-weight="500" fill="rgba(255,255,255,0.70)" text-anchor="middle">✦ Alineaciones -1h</text><rect x="730" y="834" width="290" height="46" rx="23" fill="rgba(201,162,39,0.08)" stroke="rgba(201,162,39,0.22)" stroke-width="1"/><text x="875" y="864" font-family="Segoe UI, Arial, sans-serif" font-size="20" font-weight="500" fill="rgba(255,255,255,0.70)" text-anchor="middle">✦ Datos transparentes</text><rect x="395" y="896" width="290" height="46" rx="23" fill="rgba(201,162,39,0.08)" stroke="rgba(201,162,39,0.22)" stroke-width="1"/><text x="540" y="926" font-family="Segoe UI, Arial, sans-serif" font-size="20" font-weight="500" fill="rgba(255,255,255,0.70)" text-anchor="middle">✦ Cuota justa</text></svg>