<svg xmlns="http://www.w3.org/2000/svg" width="1080" height="1080" viewBox="0 0 1080 1080">
  <rect width="1080" height="1080" fill="#0a0a0a"/>
  <circle cx="540.0" cy="540.0" r="507.8571428571429" fill="#0a0a0a" stroke="#C9A227" stroke-width="32.14285714285714"/>
  <g transform="translate(372.8571428571429,372.8571428571429) scale(13.928571428571429)" fill="none" stroke="#C9A227" stroke-width="2" stroke-linecap="round" stroke-linejoin="round">
    <path d="M3 13a1 1 0 0 1 1 -1h4a1 1 0 0 1 1 1v6a1 1 0 0 1 -1 1h-4a1 1 0 0 1 -1 -1l0 -6"/><path d="M15 9a1 1 0 0 1 1 -1h4a1 1 0 0 1 1 1v10a1 1 0 0 1 -1 1h-4a1 1 0 0 1 -1 -1l0 -10"/><path d="M9 5a1 1 0 0 1 1 -1h4a1 1 0 0 1 1 1v14a1 1 0 0 1 -1 1h-4a1 1 0 0 1 -1 -1l0 -14"/><path d="M4 20h14"/>
  </g>
</svg>